<?xml version="1.0" encoding="UTF-8"?>
<svg width="627px" height="708px" viewBox="0 0 627 708" xmlns="http://www.w3.org/2000/svg" xmlns:xlink="http://www.w3.org/1999/xlink" version="1.1">
 <!-- Generated by Pixelmator Pro 1.6 -->
 <g id="webpack-Copy">
  <path id="Path" d="M312.841 1.666 L624.981 178.25 624.981 531.417 312.841 708 0.7 531.417 0.7 178.25 Z" fill="#ffffff" fill-opacity="1" stroke="none"/>
  <path id="Path-1" d="M569.24 519.232 L323.141 658.439 323.141 550.017 476.475 465.669 Z M586.074 503.987 L586.074 212.86 496.017 264.834 496.017 451.954 Z M55.441 519.232 L301.539 658.439 301.539 550.017 148.206 465.669 55.441 519.232 Z M38.606 503.987 L38.606 212.86 128.664 264.834 128.664 451.954 Z M49.143 194.024 L301.539 51.227 301.539 156.059 139.848 244.998 138.612 245.704 Z M575.538 194.024 L323.141 51.227 323.141 156.059 484.833 244.998 486.069 245.704 Z" fill="#929292" fill-opacity="1" stroke="none"/>
  <path id="Path-2" d="M301.539 525.354 L150.266 442.183 150.266 277.372 301.539 364.722 Z M323.141 525.354 L474.415 442.183 474.415 277.372 323.141 364.722 Z M160.508 258.301 L312.37 174.777 464.232 258.301 312.37 346.004 Z" fill="#000000" fill-opacity="1" stroke="none"/>
 </g>
</svg>
